<svg xmlns="http://www.w3.org/2000/svg" viewBox="0.00 0.00 42.64 36.46" width="42.64" height="36.46">
  <path d="M31.37 25.60 C28.30 28.62 26.34 30.66 24.47 33.23 C23.53 34.52 22.91 36.16 21.79 36.26 C19.48 36.46 19.37 34.93 18.03 33.17 C16.55 31.23 11.82 24.80 9.75 25.77 C9.10 26.07 8.80 27.28 8.37 28.26 L0.47 35.88 C0.11 29.47 0.00 23.92 0.23 17.36 C1.43 14.86 3.71 10.79 5.22 8.45 L10.64 0.06 L21.28 11.54 L32.06 0.00 L37.36 8.48 C38.80 10.77 41.20 14.89 42.26 17.36 C42.64 23.95 42.51 29.64 41.95 35.85 L34.47 28.29 C33.80 27.61 32.11 24.88 31.37 25.60" fill="#000000"/>
</svg>
