<svg xmlns="http://www.w3.org/2000/svg" viewBox="446.00 1549.50 650.20 147.20" width="650.20" height="147.20">
  <path d="M1091.13 1691.69 L451.49 1691.69 L451.49 1659.03 C469.25 1659.79 476.89 1659.98 488.16 1659.98 C503.82 1659.98 507.83 1658.64 507.83 1646.61 C507.83 1636.49 505.16 1633.24 493.12 1633.43 L467.72 1633.81 L467.72 1608.60 L493.12 1608.60 C505.73 1608.60 506.69 1604.59 506.69 1596.76 C506.69 1587.97 503.63 1586.06 491.98 1586.06 L451.49 1586.06 L451.49 1558.22 C466.96 1555.74 484.34 1554.54 499.43 1554.54 C533.24 1554.54 545.27 1561.80 545.27 1585.30 C545.27 1604.78 541.26 1616.05 523.49 1618.53 L523.49 1619.30 C542.60 1622.16 548.52 1631.71 548.71 1652.34" fill="none" stroke="#2e2e2e" stroke-width="10.0" stroke-linecap="round" stroke-linejoin="round"/>
</svg>
